<?xml version="1.0" standalone="no"?>
<!DOCTYPE svg PUBLIC "-//W3C//DTD SVG 20010904//EN"
 "http://www.w3.org/TR/2001/REC-SVG-20010904/DTD/svg10.dtd">
<svg version="1.0" xmlns="http://www.w3.org/2000/svg"
 width="512.000000pt" height="512.000000pt" viewBox="0 0 512.000000 512.000000"
 preserveAspectRatio="xMidYMid meet">

<g transform="translate(0.000000,512.000000) scale(0.100000,-0.100000)"
fill="#000000" stroke="none">
<path d="M4310 4436 c-85 -18 -175 -55 -247 -102 -37 -24 -404 -383 -1033
-1011 -913 -911 -978 -973 -1010 -973 -31 0 -67 33 -484 448 -475 471 -496
488 -638 540 -67 24 -86 27 -218 27 -132 0 -151 -3 -218 -27 -107 -39 -177
-83 -263 -168 -181 -179 -244 -446 -163 -689 51 -154 63 -168 855 -957 l734
-732 95 -46 c171 -82 335 -96 507 -41 166 52 104 -5 1456 1345 687 685 1269
1272 1294 1305 99 129 150 296 140 455 -6 96 -42 220 -84 292 -92 156 -249
278 -419 323 -83 22 -225 27 -304 11z m287 -237 c258 -96 373 -388 253 -638
-30 -61 -122 -156 -1294 -1327 -1184 -1185 -1265 -1264 -1327 -1293 -134 -62
-266 -64 -401 -5 -59 26 -112 76 -790 753 -775 772 -769 765 -803 896 -54 210
50 427 252 523 69 32 88 37 173 40 105 4 183 -15 263 -65 23 -14 245 -227 492
-473 499 -496 479 -480 614 -480 132 0 70 -55 1166 1039 927 925 994 989 1052
1015 35 15 82 31 105 36 63 13 178 3 245 -21z"/>
</g>
</svg>
