<?xml version="1.0" standalone="no"?>
<!DOCTYPE svg PUBLIC "-//W3C//DTD SVG 20010904//EN"
 "http://www.w3.org/TR/2001/REC-SVG-20010904/DTD/svg10.dtd">
<svg version="1.0" xmlns="http://www.w3.org/2000/svg"
 width="487.000000pt" height="381.000000pt" viewBox="0 0 487.000000 381.000000"
 preserveAspectRatio="xMidYMid meet">

<g transform="translate(0.000000,381.000000) scale(0.100000,-0.100000)"
fill="#000000" stroke="none">
<path d="M0 3655 l0 -155 65 0 65 0 0 -215 0 -215 2370 0 2370 0 0 290 c0 187
-4 290 -10 290 -5 0 -10 9 -10 20 0 11 -4 20 -10 20 -5 0 -10 -9 -10 -20 0
-38 -27 -20 -37 25 -6 25 -6 45 -1 45 5 0 11 -15 15 -32 l7 -33 8 33 c5 17 13
32 18 32 5 0 14 -15 19 -32 8 -29 9 -25 10 35 l1 67 -2435 0 -2435 0 0 -155z
m1900 73 c0 -18 3 -50 6 -70 l7 -38 -62 0 -61 0 0 70 0 70 55 0 55 0 0 -32z
m920 4 c0 -49 -37 -71 -42 -24 -3 23 -8 27 -40 30 -61 5 -44 22 22 22 59 0 60
0 60 -28z m1500 -4 c0 -18 3 -50 6 -70 l7 -38 -62 0 -61 0 0 70 0 70 55 0 55
0 0 -32z m-3907 -25 c12 -30 15 -33 16 -15 1 18 7 22 31 22 17 0 30 -5 31 -12
0 -10 2 -10 6 0 6 15 63 16 63 0 0 -9 3 -9 12 0 7 7 21 12 33 11 19 0 19 -1 0
-8 -18 -7 -18 -8 -1 -18 23 -13 12 -33 -17 -32 -20 0 -21 1 -3 8 15 6 17 9 6
16 -8 5 -17 2 -25 -8 -7 -10 -20 -17 -29 -17 -9 0 -16 -7 -16 -15 0 -27 -20
-15 -21 13 0 15 -3 21 -6 15 -2 -7 -13 -13 -24 -13 -10 0 -19 -7 -19 -15 0 -8
-4 -15 -10 -15 -5 0 -10 5 -10 11 0 16 -26 39 -44 39 -9 0 -16 -4 -16 -10 0
-5 -5 -10 -11 -10 -6 0 -8 9 -3 23 25 79 34 84 57 30z m461 22 c3 -8 15 -15
27 -15 21 0 21 -1 6 -18 -10 -11 -14 -26 -10 -41 5 -21 4 -22 -16 -10 -17 12
-25 12 -42 0 -20 -12 -21 -11 -16 10 4 15 0 30 -10 41 -15 17 -15 18 6 18 12
0 24 7 27 15 4 8 10 15 14 15 4 0 10 -7 14 -15z m202 -10 c1 -11 2 -24 3 -29
1 -6 7 -2 14 7 9 12 27 15 72 14 57 -2 60 -3 60 -27 0 -24 -3 -25 -60 -27 -33
-1 -66 3 -72 9 -9 7 -13 7 -13 -1 0 -6 -11 -11 -25 -11 -23 0 -25 4 -25 46 0
41 2 45 23 42 14 -2 23 -10 23 -23z m187 -17 c5 6 13 12 19 12 7 0 6 -6 -2
-15 -10 -12 -10 -18 0 -30 8 -9 9 -15 2 -15 -6 0 -14 5 -18 11 -4 8 -9 7 -15
-2 -5 -9 -8 5 -8 36 1 41 3 45 8 20 4 -20 9 -26 14 -17z m257 24 c0 -15 7 -17
43 -14 32 2 38 1 27 -8 -13 -9 -13 -12 3 -21 29 -17 9 -29 -44 -28 -44 2 -49
4 -49 26 0 12 -4 23 -10 23 -5 0 -10 -11 -10 -25 0 -14 -4 -25 -10 -25 -5 0
-10 14 -10 30 0 23 4 30 20 30 11 0 20 7 20 15 0 8 5 15 10 15 6 0 10 -8 10
-18z m520 -27 c0 -25 -4 -45 -10 -45 -5 0 -10 20 -10 45 0 25 5 45 10 45 6 0
10 -20 10 -45z m460 0 c0 -43 -1 -45 -29 -45 -16 0 -31 6 -34 13 -6 18 11 47
28 47 8 0 15 7 15 15 0 8 5 15 10 15 6 0 10 -20 10 -45z m498 26 c12 -11 22
-26 22 -35 0 -8 5 -18 10 -21 6 -4 10 5 10 19 0 14 5 26 10 26 6 0 10 -13 10
-30 0 -25 -4 -30 -24 -30 -13 0 -26 6 -29 13 -4 10 -7 10 -18 0 -17 -16 -51
-17 -67 -1 -7 7 -12 21 -12 33 0 45 47 59 88 26z m129 -48 c-2 -16 -4 -5 -4
22 0 28 2 40 4 28 2 -13 2 -35 0 -50z m174 40 c0 -16 3 -22 6 -15 2 6 12 12
20 12 12 0 13 -3 3 -15 -14 -17 -5 -36 15 -28 8 3 15 0 15 -6 0 -14 -37 -14
-46 0 -4 8 -9 7 -15 -2 -8 -12 -11 -11 -19 1 -6 10 -10 11 -10 3 0 -16 -42
-17 -58 -1 -9 9 -12 9 -12 -1 0 -8 -10 -11 -27 -9 -22 2 -28 8 -28 28 0 20 6
26 28 28 17 2 27 -1 27 -9 0 -10 3 -10 12 -1 16 16 55 15 61 0 3 -7 6 -1 6 15
1 15 6 27 11 27 6 0 10 -12 11 -27z m449 -4 l13 -31 13 31 c19 45 34 38 34
-14 0 -45 -19 -66 -21 -22 l0 22 -9 -22 c-12 -31 -26 -29 -36 5 l-7 27 -7 -30
c-7 -26 -8 -24 -9 18 -1 54 11 61 29 16z m750 23 c0 -5 -10 -8 -22 -8 -19 1
-23 -4 -23 -29 0 -25 4 -30 23 -29 12 0 22 -3 22 -8 0 -16 -52 -4 -63 14 -17
26 7 68 38 68 14 0 25 -4 25 -8z m-4353 -8 c-3 -3 -12 -4 -19 -1 -8 3 -5 6 6
6 11 1 17 -2 13 -5z m50 0 c-3 -3 -12 -4 -19 -1 -8 3 -5 6 6 6 11 1 17 -2 13
-5z m50 0 c-3 -3 -12 -4 -19 -1 -8 3 -5 6 6 6 11 1 17 -2 13 -5z m2114 -1 c5
-50 2 -73 -8 -73 -7 0 -13 11 -13 25 0 16 -6 25 -15 25 -9 0 -15 -9 -15 -25 0
-14 -4 -25 -10 -25 -5 0 -10 14 -10 30 0 25 4 30 25 30 14 0 25 5 25 10 0 11
20 14 21 3z m740 0 c5 -48 2 -73 -7 -73 -12 0 -23 48 -16 68 4 13 22 16 23 5z
m-356 -33 c0 -18 -6 -26 -23 -28 -13 -2 -25 3 -28 12 -10 26 4 48 28 44 17 -2
23 -10 23 -28z m-2595 0 c0 -11 -7 -20 -15 -20 -8 0 -15 9 -15 20 0 11 7 20
15 20 8 0 15 -9 15 -20z m100 0 c0 -11 -7 -20 -15 -20 -8 0 -15 9 -15 20 0 11
7 20 15 20 8 0 15 -9 15 -20z m1137 -1 c4 -15 8 -16 24 -6 18 11 18 12 1 19
-13 6 -11 7 8 5 19 -1 26 -8 28 -29 3 -27 1 -28 -37 -26 -36 1 -41 4 -41 25 0
14 -4 21 -10 18 -5 -3 -10 -15 -10 -26 0 -10 -4 -19 -10 -19 -5 0 -10 12 -10
27 0 29 -15 22 -23 -12 -3 -13 -5 -9 -6 12 -1 31 0 32 40 31 31 0 43 -5 46
-19z m753 -9 c0 -16 -4 -30 -10 -30 -5 0 -10 12 -10 26 0 30 -19 22 -21 -9 -1
-20 -2 -20 -6 -2 -8 34 -23 41 -23 12 0 -15 -4 -27 -10 -27 -5 0 -10 14 -10
30 0 29 2 30 45 30 43 0 45 -1 45 -30z m68 2 c3 -17 -2 -25 -17 -29 -12 -3
-21 -12 -21 -19 0 -8 -4 -14 -10 -14 -5 0 -10 21 -10 46 0 44 1 45 28 42 19
-2 28 -9 30 -26z m67 -2 c0 -18 -6 -26 -23 -28 -24 -4 -38 18 -28 44 3 9 15
14 28 12 17 -2 23 -10 23 -28z m153 13 c2 -8 -5 -13 -17 -13 -28 0 -27 -17 2
-23 19 -4 18 -4 -6 -6 -29 -1 -43 18 -33 45 7 18 47 15 54 -3z m1057 -13 c0
-23 -4 -25 -53 -27 -39 -2 -54 2 -59 12 -12 33 4 44 59 42 49 -2 53 -4 53 -27z
m103 -2 c2 -16 -1 -28 -7 -28 -6 0 -11 12 -11 26 0 14 -4 23 -10 19 -5 -3 -10
-15 -10 -26 0 -10 -4 -19 -10 -19 -5 0 -10 12 -10 27 0 29 -15 22 -23 -12 -3
-13 -5 -9 -6 12 -1 32 0 33 42 30 38 -2 42 -5 45 -29z m252 2 c0 -16 -4 -30
-10 -30 -5 0 -10 14 -10 30 0 17 5 30 10 30 6 0 10 -13 10 -30z m48 23 c-27
-7 -30 -33 -5 -43 l22 -9 -23 0 c-12 -1 -25 6 -28 14 -10 24 4 45 28 44 16 -1
18 -3 6 -6z m50 -5 c-9 -7 -18 -22 -21 -33 -3 -13 -5 -8 -6 13 -1 27 3 32 21
32 19 0 20 -1 6 -12z m627 -18 c0 -18 -6 -26 -23 -28 -13 -2 -25 3 -28 12 -10
26 4 48 28 44 17 -2 23 -10 23 -28z m105 0 c0 -38 -19 -40 -21 -2 l-2 27 -4
-27 c-5 -35 -23 -37 -23 -2 0 14 -4 23 -10 19 -5 -3 -10 -15 -10 -26 0 -10 -4
-19 -10 -19 -5 0 -10 14 -10 30 0 29 2 30 45 30 43 0 45 -1 45 -30z m108 -2
c2 -16 -1 -28 -7 -28 -6 0 -11 11 -11 25 0 14 -4 25 -10 25 -5 0 -10 -11 -10
-25 0 -14 -4 -25 -10 -25 -5 0 -10 12 -10 26 0 14 -4 23 -10 19 -5 -3 -10 -15
-10 -26 0 -10 -4 -19 -10 -19 -5 0 -10 14 -10 30 0 30 1 30 48 28 43 -3 47 -5
50 -30z m-1115 5 c-7 -2 -19 -2 -25 0 -7 3 -2 5 12 5 14 0 19 -2 13 -5z
m-3466 -9 c-3 -3 -12 -4 -19 -1 -8 3 -5 6 6 6 11 1 17 -2 13 -5z m3763 -14 c0
-5 -4 -10 -10 -10 -5 0 -10 5 -10 10 0 6 5 10 10 10 6 0 10 -4 10 -10z m30 0
c0 -5 -4 -10 -10 -10 -5 0 -10 5 -10 10 0 6 5 10 10 10 6 0 10 -4 10 -10z m30
0 c0 -5 -4 -10 -10 -10 -5 0 -10 5 -10 10 0 6 5 10 10 10 6 0 10 -4 10 -10z
m-3870 -20 c0 -11 -7 -20 -15 -20 -8 0 -15 9 -15 20 0 11 7 20 15 20 8 0 15
-9 15 -20z m50 0 c0 -11 -7 -20 -15 -20 -8 0 -15 9 -15 20 0 11 7 20 15 20 8
0 15 -9 15 -20z m50 0 c0 -11 -7 -20 -15 -20 -8 0 -15 9 -15 20 0 11 7 20 15
20 8 0 15 -9 15 -20z m2570 -25 c0 -3 -29 -5 -65 -5 -75 0 -89 17 -17 22 43 3
82 -5 82 -17z m-2018 -191 c55 -29 86 -107 68 -173 -41 -153 -259 -154 -300
-3 -36 137 103 243 232 176z m871 -32 c30 -30 32 -37 32 -102 0 -65 -2 -72
-33 -102 -30 -31 -37 -33 -102 -33 -65 0 -72 2 -102 32 -28 29 -33 40 -36 98
-4 65 -4 65 37 106 41 41 41 41 106 37 58 -3 69 -8 98 -36z m-1333 -31 c0 -11
-6 -22 -12 -25 -10 -5 -10 -7 0 -12 14 -7 16 -34 3 -34 -6 0 -11 -19 -13 -42
-2 -35 -7 -44 -24 -46 -19 -3 -22 3 -26 55 -7 82 10 122 55 123 10 0 17 -8 17
-19z m878 -3 c7 -7 12 -37 12 -68 0 -31 -5 -61 -12 -68 -7 -7 -37 -12 -68 -12
-31 0 -61 5 -68 12 -7 7 -12 37 -12 68 0 31 5 61 12 68 16 16 120 16 136 0z"/>
<path d="M380 3696 c0 -9 5 -16 10 -16 6 0 10 4 10 9 0 6 -4 13 -10 16 -5 3
-10 -1 -10 -9z"/>
<path d="M455 3690 c-4 -6 -3 -16 3 -22 6 -6 12 -6 17 2 4 6 3 16 -3 22 -6 6
-12 6 -17 -2z"/>
<path d="M525 3690 c-4 -6 -3 -16 3 -22 6 -6 12 -6 17 2 4 6 3 16 -3 22 -6 6
-12 6 -17 -2z"/>
<path d="M1051 3714 c0 -11 3 -14 6 -6 3 7 2 16 -1 19 -3 4 -6 -2 -5 -13z"/>
<path d="M1115 3690 c-7 -12 2 -30 16 -30 5 0 9 9 9 20 0 21 -15 27 -25 10z"/>
<path d="M1185 3690 c-7 -12 2 -30 16 -30 5 0 9 9 9 20 0 21 -15 27 -25 10z"/>
<path d="M1050 3674 c0 -8 5 -12 10 -9 6 4 8 11 5 16 -9 14 -15 11 -15 -7z"/>
<path d="M1535 3690 c-10 -16 4 -30 32 -30 l27 0 -22 20 c-24 23 -28 24 -37
10z"/>
<path d="M2455 3690 c-7 -12 2 -30 16 -30 5 0 9 9 9 20 0 21 -15 27 -25 10z"/>
<path d="M2934 3716 c-10 -26 0 -51 21 -51 16 0 20 7 20 30 0 33 -30 49 -41
21z"/>
<path d="M3160 3680 c0 -13 5 -20 13 -17 6 2 12 10 12 17 0 7 -6 15 -12 18 -8
2 -13 -5 -13 -18z"/>
<path d="M3230 3680 c0 -13 5 -20 13 -17 6 2 12 10 12 17 0 7 -6 15 -12 18 -8
2 -13 -5 -13 -18z"/>
<path d="M2710 3690 c0 -5 5 -10 10 -10 6 0 10 5 10 10 0 6 -4 10 -10 10 -5 0
-10 -4 -10 -10z"/>
<path d="M1415 3670 c-3 -5 -1 -10 4 -10 6 0 11 5 11 10 0 6 -2 10 -4 10 -3 0
-8 -4 -11 -10z"/>
<path d="M2174 3686 c-8 -22 3 -33 18 -18 9 9 9 15 0 24 -9 9 -13 7 -18 -6z"/>
<path d="M2234 3689 c-10 -17 13 -36 27 -22 12 12 4 33 -11 33 -5 0 -12 -5
-16 -11z"/>
<path d="M3387 3686 c-7 -16 1 -26 20 -26 7 0 13 9 13 20 0 23 -25 27 -33 6z"/>
<path d="M3445 3690 c-7 -12 2 -30 16 -30 5 0 9 9 9 20 0 21 -15 27 -25 10z"/>
<path d="M4524 3689 c-10 -17 13 -36 27 -22 12 12 4 33 -11 33 -5 0 -12 -5
-16 -11z"/>
<path d="M1504 3347 c-3 -8 -4 -39 -2 -68 l3 -54 65 0 65 0 3 39 c2 21 0 42
-5 45 -4 3 -13 15 -19 26 -14 25 -101 35 -110 12z m63 -33 c-3 -3 -12 -4 -19
-1 -8 3 -5 6 6 6 11 1 17 -2 13 -5z m21 -51 c-10 -2 -26 -2 -35 0 -10 3 -2 5
17 5 19 0 27 -2 18 -5z"/>
<path d="M1190 3340 c0 -5 5 -10 10 -10 6 0 10 5 10 10 0 6 -4 10 -10 10 -5 0
-10 -4 -10 -10z"/>
<path d="M1130 3290 c0 -13 7 -20 20 -20 13 0 20 7 20 20 0 13 -7 20 -20 20
-13 0 -20 -7 -20 -20z"/>
<path d="M1090 3265 l0 -35 60 0 60 0 0 35 c0 39 -17 48 -22 13 -2 -19 -9 -23
-38 -23 -29 0 -36 4 -38 23 -5 35 -22 26 -22 -13z"/>
<path d="M130 2988 l0 -71 26 24 26 24 1108 0 1108 0 26 -24 26 -24 0 -697 0
-697 -26 -24 -26 -24 -1108 0 -1108 0 -26 24 -26 24 0 -101 0 -102 2370 0
2370 0 0 60 c0 45 -4 62 -15 67 -45 16 -45 23 -45 757 l0 695 30 34 c24 28 30
44 30 81 l0 46 -2370 0 -2370 0 0 -72z"/>
<path d="M4835 2910 c-13 -25 -15 -120 -15 -719 l0 -690 25 -28 24 -28 1 748
c0 478 -4 747 -10 747 -5 0 -16 -13 -25 -30z"/>
<path d="M23 2863 c-15 -3 -23 -12 -23 -24 0 -17 7 -19 65 -19 58 0 65 2 65
20 0 15 -7 20 -29 20 -16 0 -35 2 -43 4 -7 2 -23 1 -35 -1z"/>
<path d="M4373 1295 c-3 -9 -4 -17 -2 -18 2 -1 18 -12 36 -25 18 -12 37 -22
42 -22 9 0 31 -31 31 -44 0 -2 -46 -7 -102 -9 -118 -6 -128 -7 -128 -19 0 -17
-32 -7 -37 13 -4 12 -11 18 -20 15 -8 -3 -17 -6 -19 -6 -2 0 -4 -18 -4 -40 0
-33 3 -40 20 -40 11 0 20 -4 20 -10 0 -14 37 -12 43 3 3 6 6 -3 6 -20 1 -24
-5 -37 -24 -49 -28 -18 -25 -34 6 -34 12 0 19 -5 16 -12 -4 -14 -30 -16 -65
-4 -22 7 -23 6 -20 -31 2 -30 7 -37 21 -35 23 4 22 -19 -2 -25 -16 -4 -19 -16
-20 -91 -1 -60 2 -88 11 -94 10 -6 10 -8 1 -8 -10 0 -13 -76 -13 -345 l0 -345
55 0 56 0 -1 262 c-1 587 -2 566 20 588 17 17 34 20 103 21 45 0 76 3 70 6
-26 10 -12 32 23 39 28 5 39 3 46 -10 5 -9 20 -16 33 -16 14 0 25 -4 25 -10 0
-5 20 -10 45 -10 31 0 45 4 45 13 0 22 47 37 115 37 64 0 65 1 65 26 0 16 -11
36 -25 50 -36 33 -32 117 6 129 16 6 18 16 17 96 -1 78 -3 89 -17 84 -27 -11
-61 -13 -67 -4 -3 5 -16 9 -30 9 -14 0 -22 -4 -19 -10 4 -6 -17 -9 -55 -8 -34
1 -63 5 -66 10 -3 4 -12 8 -21 8 -9 0 -13 -3 -10 -7 4 -3 -3 -11 -16 -18 -24
-12 -91 1 -81 17 3 4 -20 8 -51 8 -41 0 -57 -4 -62 -15z m367 -55 c0 -5 -5
-10 -11 -10 -5 0 -7 5 -4 10 3 6 8 10 11 10 2 0 4 -4 4 -10z m-215 -40 c-3 -5
-11 -10 -16 -10 -6 0 -7 5 -4 10 3 6 11 10 16 10 6 0 7 -4 4 -10z m134 -16 c2
-2 -7 -4 -22 -4 -14 0 -29 5 -32 10 -6 10 42 4 54 -6z m-295 -54 c16 -6 26
-17 26 -30 0 -24 -15 -27 -24 -4 -6 16 -45 16 -49 -1 -1 -5 13 -17 32 -26 47
-22 57 -43 31 -69 -25 -25 -51 -25 -81 -1 -19 15 -21 22 -12 32 10 10 14 9 19
-4 4 -11 17 -17 36 -17 39 0 32 20 -15 43 -28 13 -37 23 -37 42 0 13 8 29 18
34 22 13 25 13 56 1z m76 -10 c0 -15 7 -20 25 -20 30 0 45 -26 42 -75 -3 -58
-25 -56 -29 2 -2 35 -7 48 -18 48 -10 0 -17 -14 -20 -45 -8 -72 -25 -52 -28
33 -2 64 0 77 13 77 8 0 15 -9 15 -20z m174 -42 c9 -12 16 -30 16 -40 0 -22
-34 -58 -55 -58 -22 0 -55 37 -55 62 0 52 65 77 94 36z m114 10 c17 -17 15
-83 -3 -98 -8 -7 -24 -10 -35 -7 -16 4 -20 0 -20 -20 0 -13 -4 -21 -10 -18 -5
3 -10 40 -10 81 l0 74 33 0 c18 0 38 -5 45 -12z m-317 -185 c18 -9 28 -18 21
-21 -7 -2 -19 2 -27 8 -8 7 -20 10 -27 7 -7 -2 -19 2 -26 9 -19 20 16 19 59
-3z m-173 -46 c2 -11 -3 -17 -16 -17 -26 0 -34 11 -20 27 14 17 32 12 36 -10z"/>
<path d="M4554 1066 c-10 -26 0 -51 21 -51 16 0 20 7 20 30 0 33 -30 49 -41
21z"/>
<path d="M4677 1073 c-13 -12 -7 -54 9 -60 23 -8 38 12 30 41 -6 25 -25 34
-39 19z"/>
<path d="M4375 1230 c3 -5 8 -10 11 -10 2 0 4 5 4 10 0 6 -5 10 -11 10 -5 0
-7 -4 -4 -10z"/>
<path d="M4038 1205 l-37 -25 -255 0 c-170 0 -256 3 -256 10 0 7 -6 7 -19 0
-13 -7 -555 -10 -1680 -10 l-1661 0 0 -70 c0 -48 -4 -70 -12 -70 -9 0 -9 -3 0
-12 16 -16 15 -28 -3 -28 -8 0 -15 -7 -15 -15 0 -18 16 -20 23 -2 4 7 6 6 6
-5 1 -9 -5 -19 -11 -21 -10 -4 -10 -6 0 -6 19 -1 16 -107 -3 -115 -8 -3 -12
-12 -9 -21 3 -8 10 -12 15 -9 5 3 9 -9 9 -25 0 -33 -14 -42 -24 -16 -3 8 -12
15 -20 15 -8 0 -17 6 -19 13 -3 6 -8 -3 -12 -21 -7 -29 -11 -33 -31 -29 -21 4
-24 0 -24 -26 0 -27 2 -29 30 -24 28 6 30 4 40 -34 10 -36 14 -40 36 -35 19 5
24 3 24 -14 0 -11 -7 -20 -15 -20 -22 0 -75 41 -75 57 0 7 -5 13 -11 13 -5 0
-7 -4 -4 -10 3 -5 -1 -10 -9 -10 -13 0 -16 -15 -16 -90 0 -75 2 -88 15 -84 8
4 15 1 15 -4 0 -6 8 -12 18 -14 13 -3 9 -8 -15 -21 -42 -22 -46 -52 -6 -36 29
11 46 -2 35 -29 -3 -10 0 -13 9 -10 8 3 13 12 11 22 -3 19 2 20 29 6 17 -10
19 -22 19 -145 l0 -135 -27 -1 c-90 -3 -98 -4 -101 -22 -4 -21 50 -47 98 -47
20 0 30 -5 30 -15 0 -13 229 -15 2000 -15 l2000 0 0 590 0 590 -37 0 c-34 0
-35 1 -20 18 35 39 17 42 -35 7z m-3678 -303 c0 -24 4 -27 33 -27 l32 0 1 -60
c1 -46 0 -49 -3 -13 -4 50 -21 72 -47 62 -12 -4 -16 -19 -16 -55 0 -27 -4 -49
-10 -49 -6 0 -10 35 -10 85 0 50 4 85 10 85 6 0 10 -12 10 -28z m-190 -42 c7
-33 16 -58 20 -55 3 2 13 29 20 60 7 30 18 54 24 52 5 -2 17 -30 26 -63 l17
-59 12 45 c20 75 22 80 31 80 4 0 -1 -36 -12 -80 -11 -44 -24 -80 -28 -80 -5
0 -17 28 -28 63 l-19 62 -18 -63 c-10 -34 -23 -61 -29 -59 -5 2 -18 35 -28 73
-20 80 -21 84 -9 84 4 0 14 -27 21 -60z m526 13 c9 -27 23 -63 30 -80 8 -19 9
-33 3 -33 -5 0 -14 11 -19 25 -7 19 -17 25 -40 25 -23 0 -33 -6 -40 -25 -5
-14 -14 -25 -20 -25 -6 0 -6 10 1 28 6 15 20 51 31 80 11 28 23 52 28 52 5 0
16 -21 26 -47z m314 12 c0 -34 1 -35 40 -35 39 0 40 1 40 35 0 19 5 35 10 35
6 0 10 -33 10 -80 0 -47 -4 -80 -10 -80 -5 0 -10 18 -10 40 l0 40 -40 0 -40 0
0 -40 c0 -22 -4 -40 -10 -40 -6 0 -10 33 -10 80 0 47 4 80 10 80 6 0 10 -16
10 -35z m547 -87 c-2 -24 -4 -5 -4 42 0 47 2 66 4 43 2 -24 2 -62 0 -85z m991
110 c18 -18 15 -38 -10 -75 -32 -46 -44 -41 -17 6 31 55 13 94 -26 55 -20 -20
-33 -11 -15 11 15 18 51 20 68 3z m-400 -29 c15 -1 15 -2 0 -6 -14 -3 -18 -15
-18 -48 0 -31 5 -47 18 -54 15 -9 15 -10 -5 -11 -21 0 -23 5 -23 55 0 48 -3
55 -19 55 -42 0 -51 -10 -51 -61 0 -27 -4 -49 -10 -49 -6 0 -10 27 -10 60 0
43 4 60 13 59 44 -6 77 2 78 19 1 16 2 16 6 0 2 -10 12 -19 21 -19z m300 0
c15 -1 15 -2 0 -6 -14 -3 -18 -15 -18 -48 0 -31 5 -47 18 -55 15 -10 15 -10
-3 -8 -16 3 -21 12 -23 53 -2 27 -9 53 -15 57 -9 6 -9 8 1 8 6 0 13 8 13 18 1
16 2 16 6 0 2 -10 12 -19 21 -19z m-1965 -41 l15 -43 18 43 c9 23 21 42 25 42
7 0 -10 -54 -46 -142 -4 -10 -16 -18 -27 -18 -19 0 -19 1 3 19 l23 18 -22 58
c-25 65 -25 65 -13 65 5 0 16 -19 24 -42z m310 29 c-19 -8 -23 -18 -23 -59 0
-26 -4 -48 -10 -48 -6 0 -10 26 -10 58 l0 59 33 0 c30 1 30 0 10 -10z m105 1
c7 -7 12 -20 12 -30 0 -14 -8 -18 -40 -18 -43 0 -49 -9 -24 -34 18 -19 20 -19
45 -6 13 7 19 7 19 1 0 -16 -51 -25 -69 -14 -9 6 -20 22 -25 36 -18 51 46 101
82 65z m324 -5 c37 -33 11 -103 -38 -103 -24 0 -54 33 -54 60 0 26 30 60 52
60 12 0 30 -7 40 -17z m128 -15 c13 -25 13 -31 0 -55 -10 -18 -26 -29 -43 -31
-19 -2 -27 -9 -27 -23 0 -10 -4 -19 -10 -19 -6 0 -10 33 -10 79 l0 78 37 -1
c30 -1 40 -7 53 -28z m109 7 c3 -20 3 -20 -18 -1 -17 15 -23 16 -36 6 -17 -14
-11 -30 12 -30 29 0 54 -30 42 -51 -11 -22 -61 -26 -78 -6 -16 20 -2 29 16 11
17 -17 44 -15 50 3 3 7 -12 19 -31 27 -23 10 -36 22 -36 34 0 27 10 33 45 30
21 -2 31 -9 34 -23z m301 -1 c13 -33 13 -94 0 -94 -5 0 -10 19 -10 43 0 55
-13 76 -37 61 -12 -7 -19 -26 -21 -58 -4 -62 -20 -59 -24 6 -2 28 -7 53 -13
55 -22 6 -39 -18 -46 -64 l-6 -48 -2 60 -1 60 75 2 c73 2 76 1 85 -23z m120
-6 c13 -25 13 -31 0 -55 -10 -18 -26 -29 -43 -31 -19 -2 -27 -9 -27 -23 0 -10
-4 -19 -10 -19 -6 0 -10 33 -10 79 l0 78 37 -1 c30 -1 40 -7 53 -28z m112 15
c37 -33 11 -103 -38 -103 -24 0 -54 33 -54 60 0 26 30 60 52 60 12 0 30 -7 40
-17z m268 -44 l5 -56 -30 -1 c-44 -2 -65 7 -65 27 0 25 20 41 52 41 31 0 36
11 12 31 -12 10 -20 10 -35 1 -26 -17 -34 -15 -19 4 8 9 25 14 44 12 30 -3 31
-5 36 -59z m120 35 c13 -33 13 -94 0 -94 -5 0 -10 23 -10 50 0 36 -4 52 -15
56 -26 10 -45 -16 -45 -62 0 -24 -4 -44 -10 -44 -6 0 -10 26 -10 58 l0 59 40
1 c35 2 42 -2 50 -24z m140 -84 c0 -5 -5 -10 -11 -10 -5 0 -7 5 -4 10 3 6 8
10 11 10 2 0 4 -4 4 -10z m-2410 -40 c13 -8 13 -10 -2 -10 -9 0 -20 5 -23 10
-8 13 5 13 25 0z m10 -36 c0 -17 -22 -14 -28 4 -2 7 3 12 12 12 9 0 16 -7 16
-16z m-87 -89 c-7 -21 -13 -19 -13 6 0 11 4 18 10 14 5 -3 7 -12 3 -20z m87
-54 c0 -6 -4 -13 -10 -16 -5 -3 -10 1 -10 9 0 9 5 16 10 16 6 0 10 -4 10 -9z
m890 -136 c0 -52 -2 -55 -24 -55 -16 0 -27 7 -31 20 -9 30 4 60 26 60 10 0 19
7 19 15 0 8 2 15 5 15 3 0 5 -25 5 -55z m110 0 c0 -30 -4 -55 -10 -55 -5 0
-10 25 -10 55 0 30 5 55 10 55 6 0 10 -25 10 -55z m1580 0 c0 -52 -1 -55 -25
-55 -31 0 -50 32 -35 60 6 11 17 20 25 20 8 0 15 7 15 15 0 8 5 15 10 15 6 0
10 -25 10 -55z m577 -27 c-2 -18 -4 -6 -4 27 0 33 2 48 4 33 2 -15 2 -42 0
-60z m343 27 c0 -30 -4 -55 -10 -55 -5 0 -10 25 -10 55 0 30 5 55 10 55 6 0
10 -25 10 -55z m30 0 c0 -30 -4 -55 -10 -55 -5 0 -10 25 -10 55 0 30 5 55 10
55 6 0 10 -25 10 -55z m-3490 0 c0 -41 2 -45 24 -45 21 0 25 6 28 33 2 26 7
32 27 32 31 0 50 -28 35 -52 -8 -13 -27 -19 -73 -21 l-61 -2 0 50 c0 27 5 50
10 50 6 0 10 -20 10 -45z m1249 17 c-13 -5 -11 -46 4 -61 10 -11 9 -13 -3 -9
-15 5 -30 62 -22 85 3 9 7 9 17 0 7 -7 9 -13 4 -15z m340 0 c-13 -5 -11 -46 4
-61 10 -11 9 -13 -3 -9 -15 5 -30 62 -22 85 3 9 7 9 17 0 7 -7 9 -13 4 -15z
m530 0 c-14 -5 -11 -60 4 -65 7 -3 5 -6 -5 -6 -14 -1 -18 7 -18 34 0 19 -4 35
-10 35 -5 0 -10 -5 -10 -11 0 -8 -5 -7 -16 2 -13 10 -17 10 -25 -2 -5 -8 -9
-16 -9 -19 0 -3 4 -11 9 -19 8 -13 12 -13 27 0 15 12 17 12 12 -1 -8 -24 -45
-24 -53 -1 -4 15 -15 21 -35 21 -23 0 -28 -4 -23 -16 3 -9 13 -14 24 -11 11 3
19 1 19 -4 0 -19 -49 -9 -55 11 -15 48 31 84 54 43 9 -17 10 -17 16 0 5 12 16
16 38 15 17 -1 32 3 34 9 4 10 8 10 18 0 7 -7 9 -13 4 -15z m110 0 c-13 -5
-11 -46 4 -61 10 -11 9 -13 -3 -9 -15 5 -30 62 -22 85 3 9 7 9 17 0 7 -7 9
-13 4 -15z m960 0 c-13 -5 -11 -46 4 -61 10 -11 9 -13 -3 -9 -15 5 -30 62 -22
85 3 9 7 9 17 0 7 -7 9 -13 4 -15z m142 -37 c1 -5 5 8 9 30 7 39 7 39 8 -15
l1 -55 -24 30 c-14 17 -26 35 -26 40 -1 6 -5 -8 -9 -30 -7 -39 -7 -39 -8 15
l-1 55 24 -30 c14 -16 26 -34 26 -40z m-3103 23 c3 -14 -3 -18 -23 -18 -17 0
-25 -5 -22 -12 2 -7 14 -13 26 -12 13 0 18 -3 12 -9 -19 -19 -46 -3 -49 31 -4
43 -25 37 -33 -9 -6 -34 -6 -34 -8 8 l-1 42 47 -2 c36 -1 49 -6 51 -19z m119
-23 l1 -40 -6 35 c-4 22 -13 35 -22 35 -9 0 -17 -13 -21 -35 l-6 -35 -2 32
c-1 30 -16 51 -28 40 -3 -4 -9 -21 -13 -39 l-8 -33 -1 42 -1 43 53 -3 52 -2 2
-40z m63 5 c0 -22 -4 -40 -10 -40 -5 0 -10 18 -10 40 0 22 5 40 10 40 6 0 10
-18 10 -40z m75 20 c9 -30 -4 -60 -26 -60 -10 0 -19 -7 -19 -15 0 -8 -4 -15
-10 -15 -5 0 -10 25 -10 55 0 54 0 55 29 55 21 0 32 -6 36 -20z m65 11 c0 -5
-9 -7 -20 -4 -27 7 -25 -10 3 -22 31 -14 28 -39 -5 -43 -16 -2 -28 1 -28 6 0
6 9 8 20 5 12 -3 20 0 20 7 0 6 -9 14 -20 17 -30 8 -26 43 5 43 14 0 25 -4 25
-9z m48 -59 c8 -2 12 8 12 32 0 20 5 36 10 36 6 0 10 -18 10 -40 0 -38 -2 -40
-30 -40 -29 0 -30 2 -29 43 2 42 2 42 8 8 3 -19 12 -36 19 -39z m149 23 l1
-40 -6 35 c-4 22 -13 35 -22 35 -9 0 -17 -13 -21 -35 l-6 -35 -2 32 c-1 30
-16 51 -28 40 -3 -4 -9 -21 -13 -39 l-8 -33 -1 42 -1 43 53 -3 52 -2 2 -40z
m178 5 c0 -28 -4 -36 -22 -38 -14 -2 -26 4 -33 17 -15 29 4 63 33 59 18 -2 22
-10 22 -38z m110 20 c10 -32 -4 -60 -30 -60 -26 0 -40 28 -30 60 4 13 15 20
30 20 15 0 26 -7 30 -20z m47 11 c-8 -5 -18 -24 -22 -42 l-8 -34 -1 43 c-1 37
2 42 22 42 16 0 18 -3 9 -9z m98 0 c0 -5 -9 -7 -20 -4 -27 7 -25 -10 3 -22 31
-14 28 -39 -5 -43 -16 -2 -28 1 -28 6 0 6 9 8 20 5 12 -3 20 0 20 7 0 6 -9 14
-20 17 -30 8 -26 43 5 43 14 0 25 -4 25 -9z m27 -53 c-2 -13 -4 -3 -4 22 0 25
2 35 4 23 2 -13 2 -33 0 -45z m151 19 c3 -37 2 -38 -25 -35 -37 4 -39 39 -3
48 15 4 20 9 13 13 -6 4 -19 4 -29 0 -12 -4 -15 -3 -10 6 4 7 18 11 29 9 18
-2 23 -11 25 -41z m124 29 c5 -8 11 -7 20 2 11 11 48 17 48 8 0 -2 3 -11 6
-20 5 -12 0 -16 -21 -16 -17 0 -25 -5 -22 -12 2 -7 12 -12 21 -12 9 1 16 -2
16 -7 0 -13 -34 -11 -48 3 -9 9 -12 9 -12 0 0 -7 -4 -12 -10 -12 -5 0 -10 16
-10 36 0 45 -24 42 -28 -4 -4 -44 -22 -40 -22 4 0 46 -23 41 -31 -7 -6 -34 -6
-34 -8 8 l-1 42 48 -1 c26 0 50 -6 54 -12z m243 4 c4 -6 13 -5 24 2 28 17 51
3 51 -32 0 -34 -23 -49 -49 -33 -11 7 -21 7 -33 -1 -35 -22 -74 27 -48 59 14
17 46 20 55 5z m142 -35 c1 -40 1 -40 -5 -6 -9 44 -29 51 -38 14 -10 -48 -12
-49 -13 -5 -1 42 0 43 27 40 24 -3 27 -7 29 -43z m73 36 c0 -5 -9 -7 -20 -4
-11 3 -20 1 -20 -5 0 -5 9 -12 20 -15 31 -8 27 -47 -5 -47 -14 0 -25 4 -25 9
0 5 9 7 20 4 11 -3 20 -1 20 5 0 6 -9 14 -20 17 -30 10 -26 45 5 45 14 0 25
-4 25 -9z m250 5 c0 -2 3 -11 6 -20 5 -12 0 -16 -21 -16 -17 0 -25 -5 -22 -12
2 -7 12 -12 21 -12 9 1 16 -2 16 -7 0 -13 -34 -11 -48 3 -25 25 -6 68 30 68
10 0 18 -2 18 -4z m74 -39 c9 -37 29 -29 37 14 6 33 6 33 8 -9 1 -42 0 -43
-26 -40 -25 3 -28 7 -30 43 -2 42 1 39 11 -8z m89 36 c-7 -2 -13 -20 -13 -39
0 -19 -4 -34 -10 -34 -5 0 -10 18 -10 40 0 35 3 40 23 39 12 0 16 -3 10 -6z
m105 -36 c3 -37 2 -38 -25 -35 -37 4 -39 39 -3 48 15 4 20 9 13 13 -6 4 -19 4
-29 0 -12 -4 -15 -3 -10 6 4 7 18 11 29 9 18 -2 23 -11 25 -41z m112 3 c0 -22
-4 -40 -10 -40 -5 0 -10 18 -10 40 0 22 5 40 10 40 6 0 10 -18 10 -40z m70 20
c14 -26 -3 -60 -30 -60 -10 0 -21 -8 -23 -17 -3 -10 -5 8 -6 40 -1 54 0 57 24
57 14 0 29 -8 35 -20z m27 -42 c-2 -13 -4 -3 -4 22 0 25 2 35 4 23 2 -13 2
-33 0 -45z m73 53 c0 -5 -9 -7 -20 -4 -11 3 -20 1 -20 -5 0 -5 9 -12 20 -15
31 -8 27 -47 -5 -47 -14 0 -25 4 -25 9 0 5 9 7 20 4 11 -3 20 -1 20 5 0 6 -9
14 -20 17 -30 10 -26 45 5 45 14 0 25 -4 25 -9z m68 -11 c5 -13 3 -13 -12 -1
-15 13 -19 13 -27 0 -5 -8 -9 -16 -9 -19 0 -3 4 -11 9 -19 8 -13 12 -13 27 0
15 12 17 12 12 -1 -2 -8 -14 -16 -25 -18 -24 -4 -38 26 -28 59 8 23 45 23 53
-1z m32 -20 c0 -22 -4 -40 -10 -40 -5 0 -10 18 -10 40 0 22 5 40 10 40 6 0 10
-18 10 -40z m68 -2 l-1 -43 -4 38 c-5 46 -27 45 -31 -1 -5 -46 -22 -39 -22 8
0 38 2 40 30 40 29 0 30 -2 28 -42z m80 -10 c-2 -42 -7 -54 -22 -56 -10 -2
-23 2 -30 9 -8 9 -8 10 2 5 7 -4 21 -5 30 -1 14 7 13 9 -8 14 -45 12 -40 81 5
81 25 0 26 -2 23 -52z m102 48 c0 -2 3 -11 6 -20 5 -12 0 -16 -21 -16 -17 0
-25 -5 -22 -12 2 -7 12 -12 21 -12 9 1 16 -2 16 -7 0 -13 -34 -11 -48 3 -25
25 -6 68 30 68 10 0 18 -2 18 -4z m57 -58 c-2 -13 -4 -3 -4 22 0 25 2 35 4 23
2 -13 2 -33 0 -45z m237 19 c9 -37 29 -29 37 14 6 33 6 33 8 -9 1 -42 0 -43
-26 -40 -25 3 -28 7 -30 43 -2 42 1 39 11 -8z m174 0 c3 -37 2 -38 -25 -35
-37 4 -39 39 -3 48 15 4 20 9 13 13 -6 4 -19 4 -29 0 -12 -4 -15 -3 -10 6 4 7
18 11 29 9 18 -2 23 -11 25 -41z m124 29 c11 -16 10 -66 -2 -66 -5 0 -10 16
-10 36 0 45 -24 42 -28 -4 -4 -44 -22 -40 -22 4 0 46 -23 41 -31 -7 -6 -34 -6
-34 -8 8 l-1 42 48 -1 c26 0 50 -6 54 -12z m106 -28 c3 -36 2 -38 -26 -38 -17
0 -32 6 -35 14 -6 16 11 36 30 36 7 0 13 5 13 11 0 6 -9 9 -20 6 -11 -3 -20
-1 -20 5 0 5 12 8 28 6 23 -3 27 -8 30 -40z m70 22 c5 -13 3 -13 -11 -2 -19
16 -37 8 -37 -18 0 -26 18 -34 37 -18 14 11 15 11 11 -2 -2 -8 -16 -15 -29
-15 -25 0 -37 30 -25 61 7 19 48 14 54 -6z m-3890 -18 c4 -14 0 -15 -22 -6 -9
3 -16 10 -16 14 0 12 33 5 38 -8z m1643 -55 c-10 -9 -11 -8 -5 6 3 10 9 15 12
12 3 -3 0 -11 -7 -18z m-1441 -92 c0 -30 -4 -55 -10 -55 -5 0 -10 25 -10 55 0
30 5 55 10 55 6 0 10 -25 10 -55z m780 0 c0 -30 -4 -55 -10 -55 -5 0 -10 25
-10 55 0 30 5 55 10 55 6 0 10 -25 10 -55z m360 -1 c0 -54 0 -55 -27 -52 -25
3 -28 7 -28 38 0 29 4 36 23 38 12 2 22 10 22 18 0 8 2 14 5 14 3 0 5 -25 5
-56z m1030 26 c11 0 24 -8 29 -17 10 -17 10 -17 11 0 0 9 5 17 10 17 6 0 10
-16 10 -36 0 -46 23 -41 31 7 6 34 6 34 8 -8 1 -39 -1 -43 -23 -43 -13 0 -27
8 -31 18 -6 16 -7 16 -16 0 -6 -10 -21 -18 -34 -18 -24 0 -25 3 -24 58 1 31 3
49 6 40 2 -10 13 -18 23 -18z m127 -52 c-2 -18 -4 -6 -4 27 0 33 2 48 4 33 2
-15 2 -42 0 -60z m-1946 65 c0 -5 1 -27 2 -51 2 -47 -15 -52 -23 -6 -4 21 -11
30 -27 31 -29 3 -30 -13 -2 -22 25 -8 22 -38 -5 -43 -10 -2 -23 2 -30 8 -8 9
-6 11 11 6 31 -10 37 9 7 23 -33 14 -26 36 11 36 16 1 30 6 33 13 4 13 22 17
23 5z m1738 -21 c-13 -5 -11 -46 4 -61 10 -11 9 -13 -3 -9 -15 5 -30 62 -22
85 3 9 7 9 17 0 7 -7 9 -13 4 -15z m934 21 c-41 -5 -45 -32 -5 -34 l27 -2 -27
-4 c-42 -6 -38 -40 5 -46 31 -4 31 -4 -5 -5 l-38 -2 0 50 0 50 38 -2 c36 -1
36 -1 5 -5z m56 -21 c-14 -5 -11 -60 4 -65 7 -3 5 -6 -5 -6 -14 -1 -18 7 -18
34 0 19 -5 35 -10 35 -7 0 -6 5 2 13 9 10 16 11 24 3 7 -6 8 -12 3 -14z m390
0 c-13 -5 -11 -46 4 -61 10 -11 9 -13 -3 -9 -15 5 -30 62 -22 85 3 9 7 9 17 0
7 -7 9 -13 4 -15z m-3602 -37 c1 -40 1 -40 -5 -6 -9 44 -29 51 -38 14 -10 -48
-12 -49 -13 -5 -1 42 0 43 27 40 24 -3 27 -7 29 -43z m33 5 c0 -22 -4 -40 -10
-40 -5 0 -10 18 -10 40 0 22 5 40 10 40 6 0 10 -18 10 -40z m70 31 c0 -5 -9
-7 -20 -4 -11 3 -20 1 -20 -5 0 -5 9 -12 20 -15 31 -8 27 -47 -5 -47 -14 0
-25 4 -25 9 0 5 9 7 20 4 11 -3 20 -1 20 5 0 6 -9 14 -20 17 -30 10 -26 45 5
45 14 0 25 -4 25 -9z m135 -8 c6 -17 7 -17 16 0 6 9 21 17 34 17 22 0 25 -4
25 -39 0 -22 -3 -46 -6 -55 -6 -17 -54 -23 -54 -7 0 5 9 7 20 4 11 -3 20 0 20
6 0 6 -7 11 -15 11 -8 0 -19 9 -25 20 -12 22 -65 29 -57 8 2 -7 12 -12 21 -12
9 1 16 -2 16 -7 0 -13 -34 -11 -48 3 -7 7 -12 19 -12 28 0 37 52 55 65 23z
m143 -5 c3 -14 -3 -18 -23 -18 -17 0 -25 -5 -22 -12 2 -7 14 -13 26 -12 13 0
18 -3 12 -9 -27 -27 -63 18 -47 59 8 21 50 14 54 -8z m180 -21 c3 -37 2 -38
-25 -35 -37 4 -39 39 -3 48 15 4 20 9 13 13 -6 4 -19 4 -29 0 -12 -4 -15 -3
-10 6 4 7 18 11 29 9 18 -2 23 -11 25 -41z m68 32 c4 -8 0 -9 -15 -4 -11 3
-21 2 -21 -3 0 -5 9 -12 21 -15 13 -4 20 -12 17 -24 -4 -22 -36 -30 -52 -13
-8 9 -6 11 11 6 31 -10 37 9 8 22 -25 12 -31 23 -18 35 10 11 41 8 49 -4z
m181 -34 l1 -40 -6 35 c-4 22 -13 35 -22 35 -9 0 -17 -13 -21 -35 l-6 -35 -2
32 c-1 30 -16 51 -28 40 -3 -4 -9 -21 -13 -39 l-8 -33 -1 42 -1 43 53 -3 52
-2 2 -40z m71 2 c3 -37 2 -38 -25 -35 -37 4 -39 39 -3 48 15 4 20 9 13 13 -6
4 -19 4 -29 0 -12 -4 -15 -3 -10 6 4 7 18 11 29 9 18 -2 23 -11 25 -41z m100
21 c3 -13 -3 -18 -22 -18 -19 0 -24 -4 -19 -16 3 -9 13 -14 24 -11 11 3 19 1
19 -4 0 -5 -11 -9 -24 -9 -28 0 -41 27 -31 61 8 25 48 23 53 -3z m68 11 c4 -8
0 -9 -15 -4 -11 3 -21 2 -21 -3 0 -5 9 -12 21 -15 13 -4 20 -12 17 -24 -4 -22
-36 -30 -52 -13 -8 9 -6 11 11 6 31 -10 37 9 8 22 -25 12 -31 23 -18 35 10 11
41 8 49 -4z m28 -32 c9 -37 29 -29 37 14 6 33 6 33 8 -9 1 -42 0 -43 -26 -40
-25 3 -28 7 -30 43 -2 42 1 39 11 -8z m118 3 c3 -38 2 -40 -24 -40 -15 0 -29
4 -32 9 -10 16 5 41 25 41 10 0 19 5 19 11 0 6 -9 9 -20 6 -11 -3 -20 -1 -20
4 0 5 11 9 24 9 21 0 24 -6 28 -40z m146 -3 c3 -37 2 -38 -25 -35 -37 4 -39
39 -3 48 15 4 20 9 13 13 -6 4 -19 4 -29 0 -12 -4 -15 -3 -10 6 4 7 18 11 29
9 18 -2 23 -11 25 -41z m82 -22 c9 0 17 13 21 35 6 35 6 35 8 -8 1 -42 0 -43
-26 -40 -25 3 -28 7 -30 43 l-1 40 6 -35 c4 -22 13 -35 22 -35z m73 58 c-7 -2
-13 -20 -13 -39 0 -19 -4 -34 -10 -34 -5 0 -10 18 -10 40 0 35 3 40 23 39 12
0 16 -3 10 -6z m74 -38 l1 -40 -6 35 c-4 22 -13 35 -22 35 -9 0 -17 -13 -21
-35 -6 -35 -6 -35 -8 8 -1 42 0 43 27 40 24 -3 27 -7 29 -43z m71 2 c3 -37 2
-38 -25 -35 -37 4 -39 39 -3 48 15 4 20 9 13 13 -6 4 -19 4 -29 0 -12 -4 -15
-3 -10 6 4 7 18 11 29 9 18 -2 23 -11 25 -41z m111 -14 c-1 -32 -3 -50 -6 -41
-2 9 -14 18 -26 20 -42 6 -35 78 8 78 24 0 25 -2 24 -57z m31 21 c0 -46 23
-41 31 7 6 34 6 34 8 -8 1 -39 -1 -43 -23 -43 -13 0 -27 7 -30 16 -9 25 -7 64
4 64 6 0 10 -16 10 -36z m67 -26 c-2 -13 -4 -3 -4 22 0 25 2 35 4 23 2 -13 2
-33 0 -45z m73 53 c0 -5 -9 -7 -20 -4 -11 3 -20 1 -20 -5 0 -5 9 -12 20 -15
31 -8 27 -47 -5 -47 -14 0 -25 4 -25 9 0 5 9 7 20 4 11 -3 20 -1 20 5 0 6 -9
14 -20 17 -30 10 -26 45 5 45 14 0 25 -4 25 -9z m109 -17 c16 41 23 28 9 -17
-14 -45 -23 -47 -37 -6 -15 44 -12 61 4 24 l13 -30 11 29z m89 4 c3 -14 -3
-18 -23 -18 -17 0 -25 -5 -22 -12 2 -7 14 -12 26 -11 13 2 20 -1 16 -7 -11
-17 -44 -11 -55 10 -15 28 4 62 33 58 12 -2 23 -11 25 -20z m62 13 c0 -5 -9
-7 -20 -4 -27 7 -25 -10 3 -22 31 -14 28 -39 -5 -43 -16 -2 -28 1 -28 6 0 6 9
8 20 5 12 -3 20 0 20 7 0 6 -9 14 -20 17 -30 8 -26 43 5 43 14 0 25 -4 25 -9z
m67 -53 c-2 -13 -4 -3 -4 22 0 25 2 35 4 23 2 -13 2 -33 0 -45z m233 -3 c9 0
17 13 21 35 6 35 6 35 8 -8 1 -42 0 -43 -26 -40 -25 3 -28 7 -30 43 l-1 40 6
-35 c4 -22 13 -35 22 -35z m147 20 c1 -40 1 -40 -5 -6 -9 44 -29 51 -38 14
-10 -48 -12 -49 -13 -10 -1 47 -24 46 -29 -1 -5 -46 -22 -39 -22 8 l0 40 53
-2 52 -3 2 -40z m105 5 c3 -38 2 -40 -24 -40 -15 0 -29 4 -32 9 -10 16 5 41
25 41 10 0 19 5 19 11 0 6 -9 9 -20 6 -11 -3 -20 -1 -20 4 0 5 11 9 24 9 21 0
24 -6 28 -40z m48 -25 c9 0 17 13 21 35 6 35 6 35 8 -8 1 -42 0 -43 -26 -40
-25 3 -28 7 -30 43 l-1 40 6 -35 c4 -22 13 -35 22 -35z m98 13 c-3 -46 -6 -53
-25 -56 -13 -2 -23 1 -23 7 0 6 6 8 14 5 8 -3 17 -1 21 5 3 7 -2 11 -14 11
-22 0 -36 30 -26 60 4 13 15 20 31 20 24 0 25 -2 22 -52z m50 -16 c8 -2 12 8
12 32 0 20 5 36 10 36 6 0 10 -18 10 -40 0 -38 -2 -40 -30 -40 -29 0 -30 2
-29 43 2 42 2 42 8 8 3 -19 12 -36 19 -39z m100 46 c3 -14 -3 -18 -23 -18 -17
0 -25 -5 -22 -12 2 -7 14 -13 26 -12 13 0 18 -3 12 -9 -27 -27 -63 18 -47 59
8 21 50 14 54 -8z m209 -40 c-2 -13 -4 -3 -4 22 0 25 2 35 4 23 2 -13 2 -33 0
-45z m75 22 c3 -38 2 -40 -24 -40 -15 0 -29 4 -32 9 -10 16 5 41 25 41 10 0
19 5 19 11 0 6 -9 9 -20 6 -11 -3 -20 -1 -20 4 0 5 11 9 24 9 21 0 24 -6 28
-40z m126 -2 c2 -22 -1 -38 -7 -38 -6 0 -11 16 -11 36 0 46 -23 41 -29 -7 l-4
-34 -6 35 c-4 22 -12 35 -21 35 -9 0 -17 -13 -21 -35 l-6 -35 -2 42 -1 43 53
-3 52 -2 3 -37z m81 16 c16 41 23 28 9 -17 -14 -45 -23 -47 -37 -6 -15 44 -12
61 4 24 l13 -30 11 29z m38 -36 c-2 -13 -4 -3 -4 22 0 25 2 35 4 23 2 -13 2
-33 0 -45z m121 19 c3 -37 2 -38 -25 -35 -37 4 -39 39 -3 48 15 4 20 9 13 13
-6 4 -19 4 -29 0 -12 -4 -15 -3 -10 6 4 7 18 11 29 9 18 -2 23 -11 25 -41z
m70 21 c3 -14 -3 -18 -23 -18 -17 0 -25 -5 -22 -12 2 -7 14 -13 26 -12 13 0
18 -3 12 -9 -27 -27 -63 18 -47 59 8 21 50 14 54 -8z m-3088 -57 c0 -6 -4 -13
-10 -16 -5 -3 -10 1 -10 9 0 9 5 16 10 16 6 0 10 -4 10 -9z m1281 -14 c-10 -9
-11 -8 -5 6 3 10 9 15 12 12 3 -3 0 -11 -7 -18z m-1051 -93 c0 -54 0 -55 -27
-52 -25 3 -28 7 -28 38 0 29 4 36 23 38 12 2 22 10 22 18 0 8 2 14 5 14 3 0 5
-25 5 -56z m127 -26 c-2 -18 -4 -6 -4 27 0 33 2 48 4 33 2 -15 2 -42 0 -60z
m1480 0 c-2 -18 -4 -6 -4 27 0 33 2 48 4 33 2 -15 2 -42 0 -60z m623 27 c0
-30 -4 -55 -10 -55 -5 0 -10 25 -10 55 0 30 5 55 10 55 6 0 10 -25 10 -55z
m30 0 c0 -30 -4 -55 -10 -55 -5 0 -10 25 -10 55 0 30 5 55 10 55 6 0 10 -25
10 -55z m-2998 -2 c-2 -21 3 -40 10 -44 10 -7 8 -9 -4 -9 -14 0 -18 8 -18 35
0 19 -4 35 -10 35 -5 0 -10 -7 -10 -15 0 -9 -10 -15 -26 -15 -16 0 -24 -5 -21
-12 2 -7 14 -13 26 -12 13 0 18 -3 12 -9 -5 -5 -17 -7 -27 -5 -14 2 -19 12
-19 38 0 33 2 35 35 36 18 1 36 6 38 13 8 23 16 0 14 -36z m596 29 c3 -11 1
-11 -17 -1 -15 10 -23 11 -32 2 -8 -8 -4 -15 19 -27 30 -15 32 -15 42 5 14 24
53 22 58 -3 3 -14 -3 -18 -23 -18 -17 0 -25 -5 -22 -12 2 -7 14 -12 26 -11 13
2 20 -1 16 -7 -10 -16 -45 -12 -52 6 -5 15 -7 15 -15 0 -11 -20 -52 -21 -68
-1 -15 18 -7 19 20 3 15 -9 22 -10 31 -1 8 8 3 15 -20 27 -30 16 -39 35 -24
50 11 11 56 2 61 -12z m2206 0 c-1 -7 -2 -28 -2 -47 -3 -55 -22 -41 -22 16 0
36 4 49 13 47 6 -3 12 -10 11 -16z m56 -34 l-1 -53 -24 30 c-14 17 -25 35 -25
40 0 6 9 -1 20 -15 l20 -25 0 38 c0 20 2 37 5 37 3 0 5 -24 5 -52z m-2963 -13
l1 -40 -6 35 c-9 47 -35 47 -43 0 l-6 -35 -2 32 c-1 30 -16 51 -28 40 -3 -4
-9 -21 -13 -39 l-8 -33 -1 42 -1 43 53 -3 52 -2 2 -40z m143 9 c0 -46 23 -41
31 7 6 34 6 34 8 -8 1 -39 -1 -43 -23 -43 -13 0 -27 7 -30 16 -9 25 -7 64 4
64 6 0 10 -16 10 -36z m110 27 c0 -5 -9 -7 -20 -4 -27 7 -25 -10 3 -22 31 -14
28 -39 -5 -43 -16 -2 -28 1 -28 6 0 6 9 8 20 5 12 -3 20 0 20 7 0 6 -9 14 -20
17 -30 8 -26 43 5 43 14 0 25 -4 25 -9z m80 -56 c9 0 17 13 21 35 6 35 6 35 8
-8 1 -42 0 -43 -26 -40 -25 3 -28 7 -30 43 l-1 40 6 -35 c4 -22 13 -35 22 -35z
m73 58 c-7 -2 -13 -20 -13 -39 0 -19 -4 -34 -10 -34 -5 0 -10 18 -10 40 0 35
3 40 23 39 12 0 16 -3 10 -6z m74 -38 l1 -40 -6 35 c-4 22 -13 35 -22 35 -9 0
-17 -13 -21 -35 -6 -35 -6 -35 -8 8 -1 42 0 43 27 40 24 -3 27 -7 29 -43z m71
2 c3 -37 2 -38 -25 -35 -37 4 -39 39 -3 48 15 4 20 9 13 13 -6 4 -19 4 -29 0
-12 -4 -15 -3 -10 6 4 7 18 11 29 9 18 -2 23 -11 25 -41z m394 3 c3 -38 2 -40
-24 -40 -15 0 -29 4 -32 9 -10 16 5 41 25 41 10 0 19 5 19 11 0 6 -9 9 -20 6
-11 -3 -20 -1 -20 4 0 5 11 9 24 9 21 0 24 -6 28 -40z m55 -22 c-2 -13 -4 -3
-4 22 0 25 2 35 4 23 2 -13 2 -33 0 -45z m82 5 c-1 -32 -3 -50 -6 -41 -2 9
-14 18 -26 20 -42 6 -35 78 8 78 24 0 25 -2 24 -57z m49 -11 c8 -2 12 8 12 32
0 20 5 36 10 36 6 0 10 -11 10 -24 0 -22 2 -23 25 -13 30 14 33 32 5 24 -11
-3 -20 -1 -20 5 0 5 12 8 28 6 23 -3 27 -8 30 -40 3 -36 2 -38 -27 -38 -18 0
-31 5 -32 13 0 9 -2 9 -6 0 -2 -7 -18 -13 -34 -13 -28 0 -29 2 -28 43 2 42 2
42 8 8 3 -19 12 -36 19 -39z m219 23 l1 -40 -6 35 c-4 22 -13 35 -22 35 -9 0
-17 -13 -21 -35 l-6 -35 -2 32 c-1 30 -16 51 -28 40 -3 -4 -9 -21 -13 -39 l-8
-33 -1 42 -1 43 53 -3 52 -2 2 -40z m101 25 c5 -13 3 -13 -12 -1 -15 13 -19
13 -27 0 -5 -8 -9 -16 -9 -19 0 -3 4 -11 9 -19 8 -13 12 -13 27 0 15 12 17 12
12 -1 -8 -24 -45 -24 -53 -1 -10 33 4 63 28 59 11 -2 23 -10 25 -18z m77 0 c3
-11 3 -29 0 -40 -9 -27 -51 -27 -60 0 -10 32 4 60 30 60 15 0 26 -7 30 -20z
m72 -25 l1 -40 -6 35 c-4 22 -13 35 -22 35 -9 0 -17 -13 -21 -35 -6 -35 -6
-35 -8 8 -1 42 0 43 27 40 24 -3 27 -7 29 -43z m71 -7 c-3 -46 -6 -53 -25 -56
-13 -2 -23 1 -23 7 0 6 6 8 14 5 8 -3 17 -1 21 5 3 7 -2 11 -14 11 -22 0 -36
30 -26 60 4 13 15 20 31 20 24 0 25 -2 22 -52z m52 -13 c9 0 17 13 21 35 6 35
6 35 8 -8 1 -42 0 -43 -26 -40 -25 3 -28 7 -30 43 l-1 40 6 -35 c4 -22 13 -35
22 -35z m98 43 c3 -13 -3 -18 -22 -18 -19 0 -24 -4 -19 -16 3 -9 13 -14 24
-11 11 3 19 1 19 -4 0 -5 -11 -9 -24 -9 -28 0 -41 27 -31 61 8 25 48 23 53 -3z
m104 -18 c3 -38 2 -40 -24 -40 -15 0 -29 4 -32 9 -10 16 5 41 25 41 10 0 19 5
19 11 0 6 -9 9 -20 6 -11 -3 -20 -1 -20 4 0 5 11 9 24 9 21 0 24 -6 28 -40z
m48 -25 c9 0 17 13 21 35 6 35 6 35 8 -8 1 -42 0 -43 -26 -40 -25 3 -28 7 -30
43 l-1 40 6 -35 c4 -22 13 -35 22 -35z m98 13 c-2 -42 -7 -54 -22 -56 -10 -2
-23 2 -30 9 -8 9 -7 10 7 5 11 -3 24 -3 30 1 7 4 2 9 -13 13 -45 10 -40 80 5
80 25 0 26 -2 23 -52z m50 -16 c8 -2 12 8 12 32 0 20 5 36 10 36 6 0 10 -18
10 -40 0 -38 -2 -40 -30 -40 -29 0 -30 2 -29 43 2 42 2 42 8 8 3 -19 12 -36
19 -39z m100 46 c3 -14 -3 -18 -23 -18 -17 0 -25 -5 -22 -12 2 -7 14 -13 26
-12 13 0 18 -3 12 -9 -27 -27 -63 18 -47 59 8 21 50 14 54 -8z m100 -21 c3
-37 2 -38 -25 -35 -37 4 -39 39 -3 48 15 4 20 9 13 13 -6 4 -19 4 -29 0 -12
-4 -15 -3 -10 6 4 7 18 11 29 9 18 -2 23 -11 25 -41z m77 32 c4 -6 4 -13 0
-17 -3 -3 -10 0 -14 7 -11 18 -31 5 -31 -19 0 -26 18 -34 37 -18 14 11 15 11
11 -2 -11 -34 -68 -17 -68 19 0 34 49 56 65 30z m133 -31 c3 -36 2 -38 -26
-38 -17 0 -32 6 -35 14 -6 16 11 36 30 36 7 0 13 5 13 11 0 6 -9 9 -20 6 -11
-3 -20 -1 -20 5 0 5 12 8 28 6 23 -3 27 -8 30 -40z m70 22 c5 -13 3 -13 -11
-2 -19 16 -37 8 -37 -18 0 -26 18 -34 37 -18 14 11 15 11 11 -2 -2 -8 -16 -15
-29 -15 -25 0 -37 30 -25 61 7 19 48 14 54 -6z m32 -20 c0 -22 -4 -40 -10 -40
-5 0 -10 18 -10 40 0 22 5 40 10 40 6 0 10 -18 10 -40z m67 -5 c1 -40 1 -40
-5 -6 -9 44 -29 51 -38 14 -10 -48 -12 -49 -13 -5 -1 42 0 43 27 40 24 -3 27
-7 29 -43z m33 5 c0 -22 -4 -40 -10 -40 -5 0 -10 18 -10 40 0 22 5 40 10 40 6
0 10 -18 10 -40z m68 -3 c3 -37 2 -38 -25 -35 -37 4 -39 39 -3 48 15 4 20 9
13 13 -6 4 -19 4 -29 0 -12 -4 -15 -3 -10 6 4 7 18 11 29 9 18 -2 23 -11 25
-41z m212 -22 c9 0 17 13 21 35 6 35 6 35 8 -8 1 -42 0 -43 -26 -40 -25 3 -28
7 -30 43 l-1 40 6 -35 c4 -22 13 -35 22 -35z m158 22 c3 -37 2 -38 -25 -35
-37 4 -39 39 -3 48 15 4 20 9 13 13 -6 4 -19 4 -29 0 -12 -4 -15 -3 -10 6 4 7
18 11 29 9 18 -2 23 -11 25 -41z m124 29 c11 -16 10 -66 -2 -66 -5 0 -10 16
-10 36 0 45 -24 42 -28 -4 -4 -44 -22 -40 -22 4 0 46 -23 41 -31 -7 -6 -34 -6
-34 -8 8 l-1 42 48 -1 c26 0 50 -6 54 -12z m105 -31 l1 -40 -6 35 c-4 22 -13
35 -22 35 -9 0 -17 -13 -21 -35 -6 -35 -6 -35 -8 8 -1 42 0 43 27 40 24 -3 27
-7 29 -43z m33 5 c0 -22 -4 -40 -10 -40 -5 0 -10 18 -10 40 0 22 5 40 10 40 6
0 10 -18 10 -40z m66 29 c4 -8 0 -9 -15 -4 -12 3 -21 2 -21 -4 0 -5 9 -13 21
-16 25 -8 22 -38 -5 -43 -10 -2 -23 2 -30 8 -8 9 -6 11 11 6 31 -10 37 9 8 22
-25 12 -31 23 -18 35 10 11 41 8 49 -4z m34 -29 c0 -22 -4 -40 -10 -40 -5 0
-10 18 -10 40 0 22 5 40 10 40 6 0 10 -18 10 -40z"/>
<path d="M651 850 c-10 -29 -9 -30 19 -30 28 0 29 1 19 30 -6 17 -15 30 -19
30 -4 0 -13 -13 -19 -30z"/>
<path d="M840 850 c-10 -18 -8 -20 25 -20 33 0 35 2 25 20 -6 11 -17 20 -25
20 -8 0 -19 -9 -25 -20z"/>
<path d="M1162 858 c-17 -17 -15 -63 4 -79 22 -18 48 0 52 35 6 45 -29 71 -56
44z"/>
<path d="M1287 863 c-14 -13 -7 -84 8 -89 22 -9 45 14 45 45 0 39 -32 65 -53
44z"/>
<path d="M1817 863 c-14 -13 -7 -84 8 -89 22 -9 45 14 45 45 0 39 -32 65 -53
44z"/>
<path d="M1932 858 c-17 -17 -15 -63 4 -79 22 -18 48 0 52 35 6 45 -29 71 -56
44z"/>
<path d="M2193 804 c-3 -8 -1 -20 5 -26 13 -13 52 7 52 27 0 20 -49 19 -57 -1z"/>
<path d="M967 415 c-8 -20 3 -47 17 -42 6 2 11 14 11 27 0 27 -20 38 -28 15z"/>
<path d="M2654 415 c-8 -19 2 -45 16 -45 5 0 10 14 10 30 0 31 -16 41 -26 15z"/>
<path d="M227 423 c-11 -10 -8 -41 4 -49 6 -3 18 1 27 9 13 13 13 19 2 31 -14
17 -23 20 -33 9z"/>
<path d="M2125 420 c-3 -5 3 -10 15 -10 12 0 18 5 15 10 -3 6 -10 10 -15 10
-5 0 -12 -4 -15 -10z"/>
<path d="M345 420 c-3 -5 3 -10 15 -10 12 0 18 5 15 10 -3 6 -10 10 -15 10 -5
0 -12 -4 -15 -10z"/>
<path d="M600 399 c0 -38 24 -35 28 4 2 19 -1 27 -12 27 -11 0 -16 -10 -16
-31z"/>
<path d="M1044 416 c-8 -22 3 -49 19 -43 6 2 12 14 12 27 0 27 -22 39 -31 16z"/>
<path d="M1146 415 c-7 -20 3 -45 19 -45 16 0 26 25 19 45 -4 8 -12 15 -19 15
-7 0 -15 -7 -19 -15z"/>
<path d="M1475 391 c-3 -5 -1 -12 5 -16 12 -7 30 2 30 16 0 12 -27 12 -35 0z"/>
<path d="M1675 420 c-3 -5 1 -10 9 -10 9 0 16 5 16 10 0 6 -4 10 -9 10 -6 0
-13 -4 -16 -10z"/>
<path d="M1847 423 c-11 -10 -8 -41 4 -49 6 -3 18 1 26 9 14 14 14 17 0 31
-17 18 -21 19 -30 9z"/>
<path d="M1914 416 c-8 -22 3 -49 19 -43 6 2 12 14 12 27 0 27 -22 39 -31 16z"/>
<path d="M2315 420 c-3 -5 1 -10 9 -10 9 0 16 5 16 10 0 6 -4 10 -9 10 -6 0
-13 -4 -16 -10z"/>
<path d="M2575 391 c-3 -5 -1 -12 5 -16 12 -7 30 2 30 16 0 12 -27 12 -35 0z"/>
<path d="M2754 416 c-8 -22 3 -49 19 -43 6 2 12 14 12 27 0 27 -22 39 -31 16z"/>
<path d="M3104 416 c-8 -22 3 -49 19 -43 6 2 12 14 12 27 0 27 -22 39 -31 16z"/>
<path d="M3215 420 c-3 -5 1 -10 9 -10 9 0 16 5 16 10 0 6 -4 10 -9 10 -6 0
-13 -4 -16 -10z"/>
<path d="M3675 391 c-3 -5 -1 -12 5 -16 12 -7 30 2 30 16 0 12 -27 12 -35 0z"/>
<path d="M3905 389 c-4 -6 -5 -13 -2 -16 7 -7 27 6 27 18 0 12 -17 12 -25 -2z"/>
<path d="M1424 256 c-8 -22 3 -49 19 -43 6 2 12 14 12 27 0 27 -22 39 -31 16z"/>
<path d="M2485 250 c-8 -27 10 -49 26 -33 13 13 8 45 -8 50 -6 2 -14 -6 -18
-17z"/>
<path d="M395 260 c-3 -5 1 -10 9 -10 9 0 16 5 16 10 0 6 -4 10 -9 10 -6 0
-13 -4 -16 -10z"/>
<path d="M464 255 c-8 -19 2 -45 16 -45 5 0 10 14 10 30 0 31 -16 41 -26 15z"/>
<path d="M535 260 c-3 -5 3 -10 15 -10 12 0 18 5 15 10 -3 6 -10 10 -15 10 -5
0 -12 -4 -15 -10z"/>
<path d="M715 231 c-3 -5 -1 -12 5 -16 12 -7 30 2 30 16 0 12 -27 12 -35 0z"/>
<path d="M1035 231 c-3 -5 -1 -12 5 -16 12 -7 30 2 30 16 0 12 -27 12 -35 0z"/>
<path d="M1135 260 c-3 -5 3 -10 15 -10 12 0 18 5 15 10 -3 6 -10 10 -15 10
-5 0 -12 -4 -15 -10z"/>
<path d="M1350 224 c0 -17 22 -14 28 4 2 7 -3 12 -12 12 -9 0 -16 -7 -16 -16z"/>
<path d="M1495 231 c-3 -5 -1 -12 5 -16 12 -7 30 2 30 16 0 12 -27 12 -35 0z"/>
<path d="M1795 231 c-3 -5 -1 -12 5 -16 12 -7 30 2 30 16 0 12 -27 12 -35 0z"/>
<path d="M1904 256 c-8 -22 3 -49 19 -43 6 2 12 14 12 27 0 27 -22 39 -31 16z"/>
<path d="M2275 260 c-3 -5 3 -10 15 -10 12 0 18 5 15 10 -3 6 -10 10 -15 10
-5 0 -12 -4 -15 -10z"/>
<path d="M2890 224 c0 -17 22 -14 28 4 2 7 -3 12 -12 12 -9 0 -16 -7 -16 -16z"/>
<path d="M3037 255 c-8 -20 3 -47 17 -42 6 2 11 14 11 27 0 27 -20 38 -28 15z"/>
<path d="M3185 260 c-3 -5 3 -10 15 -10 12 0 18 5 15 10 -3 6 -10 10 -15 10
-5 0 -12 -4 -15 -10z"/>
<path d="M3470 224 c0 -17 22 -14 28 4 2 7 -3 12 -12 12 -9 0 -16 -7 -16 -16z"/>
<path d="M3835 231 c-3 -5 -1 -12 5 -16 12 -7 30 2 30 16 0 12 -27 12 -35 0z"/>
<path d="M3905 260 c-3 -5 3 -10 15 -10 12 0 18 5 15 10 -3 6 -10 10 -15 10
-5 0 -12 -4 -15 -10z"/>
<path d="M1044 96 c-8 -22 3 -49 19 -43 6 2 12 14 12 27 0 27 -22 39 -31 16z"/>
<path d="M275 100 c-3 -5 3 -10 15 -10 12 0 18 5 15 10 -3 6 -10 10 -15 10 -5
0 -12 -4 -15 -10z"/>
<path d="M975 100 c-3 -5 3 -10 15 -10 12 0 18 5 15 10 -3 6 -10 10 -15 10 -5
0 -12 -4 -15 -10z"/>
<path d="M755 71 c-3 -5 -1 -12 5 -16 12 -7 30 2 30 16 0 12 -27 12 -35 0z"/>
<path d="M1150 64 c0 -17 22 -14 28 4 2 7 -3 12 -12 12 -9 0 -16 -7 -16 -16z"/>
<path d="M1284 96 c-8 -22 3 -49 19 -43 6 2 12 14 12 27 0 27 -22 39 -31 16z"/>
<path d="M1435 69 c-4 -6 -5 -13 -2 -16 7 -7 27 6 27 18 0 12 -17 12 -25 -2z"/>
<path d="M1726 95 c-7 -20 3 -45 19 -45 7 0 15 7 19 15 7 20 -3 45 -19 45 -7
0 -15 -7 -19 -15z"/>
<path d="M1877 95 c-8 -20 3 -47 17 -42 6 2 11 14 11 27 0 27 -20 38 -28 15z"/>
<path d="M2025 100 c-3 -5 3 -10 15 -10 12 0 18 5 15 10 -3 6 -10 10 -15 10
-5 0 -12 -4 -15 -10z"/>
<path d="M2130 64 c0 -17 22 -14 28 4 2 7 -3 12 -12 12 -9 0 -16 -7 -16 -16z"/>
<path d="M2274 96 c-8 -22 3 -49 19 -43 6 2 12 14 12 27 0 27 -22 39 -31 16z"/>
<path d="M2425 100 c-3 -5 3 -10 15 -10 12 0 18 5 15 10 -3 6 -10 10 -15 10
-5 0 -12 -4 -15 -10z"/>
<path d="M2525 71 c-3 -5 -1 -12 5 -16 12 -7 30 2 30 16 0 12 -27 12 -35 0z"/>
<path d="M2735 69 c-4 -6 -5 -13 -2 -16 7 -7 27 6 27 18 0 12 -17 12 -25 -2z"/>
<path d="M3005 71 c-3 -5 -1 -12 5 -16 12 -7 30 2 30 16 0 12 -27 12 -35 0z"/>
<path d="M3375 71 c-3 -5 -1 -12 5 -16 12 -7 30 2 30 16 0 12 -27 12 -35 0z"/>
<path d="M4407 1207 c-4 -10 2 -13 20 -9 18 3 21 7 11 13 -18 12 -25 11 -31
-4z"/>
<path d="M4857 1103 c-11 -10 -8 -81 3 -88 6 -4 10 13 10 44 0 52 -1 56 -13
44z"/>
<path d="M4206 1043 c-6 -14 -5 -15 5 -6 7 7 10 15 7 18 -3 3 -9 -2 -12 -12z"/>
<path d="M0 986 c0 -29 3 -33 20 -29 24 6 27 33 3 33 -15 0 -14 2 3 15 19 14
18 14 -3 15 -19 0 -23 -5 -23 -34z"/>
<path d="M49 913 c-12 -15 -12 -16 4 -10 10 4 26 7 35 7 15 0 15 2 2 10 -21
13 -25 13 -41 -7z"/>
<path d="M30 886 c0 -2 6 -9 13 -15 10 -8 14 -7 14 4 0 8 -6 15 -14 15 -7 0
-13 -2 -13 -4z"/>
<path d="M4307 842 c-18 -20 -25 -142 -9 -142 5 0 13 -17 18 -37 l10 -38 10
34 c13 45 32 51 40 12 7 -33 24 -43 24 -13 0 24 12 38 38 46 18 6 22 4 22 -13
0 -13 8 -21 23 -23 19 -3 22 -10 25 -51 2 -33 0 -47 -7 -42 -6 3 -11 22 -11
41 0 24 -5 34 -15 34 -10 0 -15 -10 -15 -34 0 -19 -4 -38 -10 -41 -6 -4 -10
16 -10 52 0 63 -14 58 -25 -9 -9 -53 -23 -56 -42 -11 l-16 38 -11 -32 c-15
-44 -29 -42 -43 4 -9 31 -12 -23 -12 -289 l-1 -328 290 0 290 0 0 284 c0 179
-4 287 -10 291 -5 3 -10 17 -10 31 0 19 -5 24 -25 24 -20 0 -25 -5 -25 -25 0
-14 -4 -25 -10 -25 -6 0 -10 27 -10 60 0 33 4 60 10 60 6 0 10 -11 10 -25 0
-20 5 -25 25 -25 20 0 25 5 25 25 0 14 5 25 10 25 6 0 10 33 10 80 l0 80 -273
0 c-253 0 -275 -1 -290 -18z m333 -196 c0 -36 -4 -68 -10 -71 -6 -4 -10 20
-10 64 0 41 4 71 10 71 6 0 10 -28 10 -64z m-37 3 c14 -23 0 -67 -24 -74 -13
-4 -27 0 -40 11 -22 19 -24 36 -8 65 12 24 57 23 72 -2z m111 15 c9 -3 16 -15
16 -25 0 -14 -7 -19 -30 -19 -22 0 -28 -4 -24 -15 4 -11 14 -13 33 -8 23 6 25
5 12 -10 -17 -21 -35 -22 -55 -1 -41 40 -5 98 48 78z"/>
<path d="M4546 633 c-4 -9 -1 -23 7 -30 12 -12 16 -12 26 1 16 19 8 46 -13 46
-7 0 -17 -8 -20 -17z"/>
<path d="M4688 643 c7 -3 16 -2 19 1 4 3 -2 6 -13 5 -11 0 -14 -3 -6 -6z"/>
<path d="M15 830 c3 -5 13 -10 21 -10 8 0 12 5 9 10 -3 6 -13 10 -21 10 -8 0
-12 -4 -9 -10z"/>
<path d="M0 440 c0 -5 7 -10 15 -10 8 0 15 5 15 10 0 6 -7 10 -15 10 -8 0 -15
-4 -15 -10z"/>
<path d="M7 363 c7 -2 19 -2 26 0 6 3 1 5 -13 5 -14 0 -19 -2 -13 -5z"/>
<path d="M10 330 c0 -5 7 -7 15 -4 8 4 15 8 15 10 0 2 -7 4 -15 4 -8 0 -15 -4
-15 -10z"/>
<path d="M65 331 c-3 -5 5 -17 17 -25 l22 -16 -24 -1 c-20 -1 -21 -2 -6 -6 26
-7 50 25 35 44 -13 15 -35 17 -44 4z"/>
</g>
</svg>
